HIERARCHY
ROOT Hips
{
  OFFSET 2.26061 22.2878 23.7974
  CHANNELS 6 Xposition Yposition Zposition Zrotation Xrotation Yrotation
  JOINT LeftUpLeg
  {
    OFFSET 8.64259 1.95398 -2.38835
    CHANNELS 3 Zrotation Xrotation Yrotation
    JOINT LeftLeg
    {
      OFFSET 43.7702 0 0
      CHANNELS 3 Zrotation Xrotation Yrotation
      JOINT LeftFoot
      {
        OFFSET 40.6238 0 0
        CHANNELS 3 Zrotation Xrotation Yrotation
        JOINT LeftToeBase
        {
          OFFSET 12.7242 0 0
          CHANNELS 3 Zrotation Xrotation Yrotation
          End Site
          {
            OFFSET 0 0 0
          }
        }
      }
    }
  }
  JOINT RightUpLeg
  {
    OFFSET -8.2249 1.95398 -2.59336
    CHANNELS 3 Zrotation Xrotation Yrotation
    JOINT RightLeg
    {
      OFFSET 43.5653 0 0
      CHANNELS 3 Zrotation Xrotation Yrotation
      JOINT RightFoot
      {
        OFFSET 40.6238 0 0
        CHANNELS 3 Zrotation Xrotation Yrotation
        JOINT RightToeBase
        {
          OFFSET 12.7242 0 0
          CHANNELS 3 Zrotation Xrotation Yrotation
          End Site
          {
            OFFSET 0 0 0
          }
        }
      }
    }
  }
  JOINT Spine
  {
    OFFSET 0.165834 0.87714 6.61349
    CHANNELS 3 Zrotation Xrotation Yrotation
    JOINT Spine1
    {
      OFFSET 7.38963 1.71661e-005 0
      CHANNELS 3 Zrotation Xrotation Yrotation
      JOINT Spine2
      {
        OFFSET 11.9445 1.14441e-005 0
        CHANNELS 3 Zrotation Xrotation Yrotation
        JOINT Spine3
        {
          OFFSET 14.7254 4.19617e-005 0
          CHANNELS 3 Zrotation Xrotation Yrotation
          JOINT Spine4
          {
            OFFSET 10.9679 0 0
            CHANNELS 3 Zrotation Xrotation Yrotation
            JOINT RightShoulder
            {
              OFFSET 2.46616 -1.6653 3.69651
              CHANNELS 3 Zrotation Xrotation Yrotation
              JOINT RightArm
              {
                OFFSET 13.0012 0 0
                CHANNELS 3 Zrotation Xrotation Yrotation
                JOINT RightForeArm
                {
                  OFFSET 28.7848 1.52588e-005 0
                  CHANNELS 3 Zrotation Xrotation Yrotation
                  JOINT RightHand
                  {
                    OFFSET 26.5688 1.52588e-005 0
                    CHANNELS 3 Zrotation Xrotation Yrotation
                    End Site
                    {
                      OFFSET 0 0 0
                    }
                  }
                }
              }
            }
            JOINT LeftShoulder
            {
              OFFSET 2.38034 -1.29275 -3.7523
              CHANNELS 3 Zrotation Xrotation Yrotation
              JOINT LeftArm
              {
                OFFSET 16.3182 6.10351e-005 0
                CHANNELS 3 Zrotation Xrotation Yrotation
                JOINT LeftForeArm
                {
                  OFFSET 27.0901 0 0
                  CHANNELS 3 Zrotation Xrotation Yrotation
                  JOINT LeftHand
                  {
                    OFFSET 24.5451 1.52588e-005 0
                    CHANNELS 3 Zrotation Xrotation Yrotation
                    End Site
                    {
                      OFFSET 0 0 0
                    }
                  }
                }
              }
            }
            JOINT Neck
            {
              OFFSET 5.0226 -0.0266342 0
              CHANNELS 3 Zrotation Xrotation Yrotation
              JOINT Head
              {
                OFFSET 6.69363 2.86102e-005 0
                CHANNELS 3 Zrotation Xrotation Yrotation
                End Site
                {
                  OFFSET 0 0 0
                }
              }
            }
          }
        }
      }
    }
  }
}
MOTION
Frames:	7
Frame Time:	0.0416667
42.1646 97.2311 18.8917 88.7552 -35.1758 88.3092 -172.175 7.75052 90.7586 -12.2839 9.6356 -0.249534 62.721 1.8797 0.573109 30.6559 1.35303 1.70207 173.991 5.5465 88.8828 -11.9691 -6.78657 -2.99564 65.7318 -3.12684 -1.7085 29.4099 0.14321 -1.8944 -0.0654645 6.95629 -89.9231 12.9633 -0.0929519 0.165052 1.29239 -0.0856 0.168972 -21.2428 -0.138262 0.129482 -1.2301 -0.138283 0.129477 95.3768 -53.1131 -92.1374 24.9302 -5.42311 4.46028 -8.50704 -23.6138 -42.8782 -4.65548 -0.714681 4.05114 -103.484 -54.8129 60.9225 -18.9301 9.82229 6.08366 2.69768 6.82565 -32.9472 10.6798 0.706885 2.59162 5.44462 -1.58706 5.14828 1.02555 -2.54309 -3.58401 
42.1279 97.2225 18.9084 88.7265 -35.1778 88.2796 -172.355 7.89352 90.666 -12.5659 8.94368 -0.0424437 62.8808 1.99246 -0.0182499 30.4946 1.22476 1.66695 174.006 5.53408 88.9181 -11.8587 -6.60716 -2.98384 65.8032 -3.164 -1.72768 29.2714 0.126033 -1.68667 -0.0537806 6.95553 -89.9296 12.9628 -0.0729363 0.149756 1.29188 -0.0662873 0.152814 -21.2432 -0.114569 0.120908 -1.23059 -0.114591 0.120906 95.7175 -52.9994 -91.6426 25.0659 -5.34302 4.32267 -8.40325 -23.6414 -42.4756 -4.67783 -0.697413 3.67391 -103.842 -54.9211 60.4772 -18.8944 9.91525 6.38827 2.63345 6.71198 -33.1217 11.1961 0.714211 2.38689 5.7476 -1.62745 5.11894 0.756853 -2.57785 -3.46745 
41.917 97.1859 18.7983 89.2033 -35.3283 88.5721 -172.36 8.08228 90.6739 -13.3328 9.87047 -0.0875081 62.3928 2.12586 1.62587 31.353 1.96806 0.964791 174.21 6.06446 89.004 -13.3434 -6.9148 -3.15437 66.0576 -3.20115 -1.73809 29.0603 0.150055 -2.28418 -0.0398592 7.0106 -89.919 12.8527 -0.0403328 0.166795 1.1817 -0.032954 0.168397 -21.3534 -0.0885932 0.146967 -1.34074 -0.0885849 0.146957 95.5553 -53.3245 -91.8456 24.8503 -5.34898 4.46373 -8.74527 -24.1874 -42.6153 -4.63484 -0.728424 4.20332 -103.614 -54.8078 60.7433 -19.2227 9.88646 7.09968 3.10155 6.69788 -34.4388 10.4636 0.741773 3.01678 5.49249 -1.70067 4.77403 1.16431 -2.57869 -3.08925 
41.5383 97.0631 18.3349 89.9007 -35.7917 88.8888 -172.438 8.81597 90.4937 -15.3467 8.67316 -0.100409 62.4628 2.37847 0.930167 32.0077 2.47911 1.18253 174.563 7.48218 88.9307 -16.3594 -7.33546 -3.51544 67.1608 -3.57306 -1.91825 27.3367 0.0300032 -1.31412 0.0387983 7.12026 -89.9095 12.6332 0.120385 0.166503 0.962222 0.127563 0.161048 -21.5728 0.064766 0.194988 -1.56019 0.0647667 0.194979 95.6635 -53.3212 -91.6848 24.9236 -5.64648 4.70137 -8.82268 -24.0857 -43.2749 -5.49092 -0.787306 4.38963 -103.659 -54.6836 60.634 -19.8408 9.63774 8.14857 3.26563 5.99261 -36.0171 11.3271 0.778334 2.84913 5.47674 -1.83803 4.39104 1.3229 -2.64985 -2.94397 
40.7135 96.9434 17.3632 90.2009 -37.1325 88.4885 -172.606 11.2744 89.8949 -19.1421 7.19695 -0.378603 60.5437 1.1175 -0.0543032 34.8898 4.78261 1.73415 175.552 10.4345 88.6789 -20.5882 -8.23785 -4.57275 65.278 -2.92089 -1.58398 31.0324 0.203717 -2.06281 0.129217 7.28737 -89.8391 12.2987 0.3333 0.283719 0.627769 0.345463 0.268774 -21.9073 0.232623 0.370775 -1.89468 0.232621 0.37077 95.3709 -52.6583 -92.2032 25.3774 -6.74823 5.74566 -11.423 -24.9343 -47.4904 -6.05265 -0.836661 4.30575 -103.199 -54.3696 61.1434 -20.9251 8.9943 9.36566 2.64874 3.60496 -38.8233 13.2568 0.819562 2.26771 5.28703 -1.7482 3.41503 2.88113 -2.39177 -2.12966 
39.4943 96.7548 15.8124 90.0575 -38.4825 88.3244 -172.372 15.741 89.875 -25.1354 9.60347 -0.97829 59.712 0.985055 1.05571 35.6337 5.36493 6.63231 177.032 14.1978 88.8413 -24.6294 -8.61417 -5.79654 62.6265 -1.87373 -0.995134 33.2609 0.271839 -1.89422 0.0130121 7.59552 -89.7209 11.6821 0.156874 0.539905 0.0110724 0.180486 0.532479 -22.5232 -0.0126524 0.562083 -2.51053 -0.012643 0.562098 95.2998 -52.4902 -92.3312 25.7978 -9.56066 6.11606 -10.1385 -22.6204 -50.8519 -10.8852 -0.827675 1.83186 -103.158 -53.4977 60.8644 -21.9323 5.98499 11.8205 2.36444 0.0998998 -46.0249 15.3419 1.01605 2.72231 5.6316 -1.10899 -0.0758198 5.56987 -1.03938 0.441362 
38.1051 96.6488 13.4598 87.7646 -41.6538 87.5946 -173.129 20.6342 90.4213 -27.3863 12.5565 -0.526141 59.04 0.332722 -0.445594 34.8657 4.7166 4.81192 178.553 18.9046 89.468 -25.9245 -10.2969 -6.23307 59.639 -0.951007 -0.451376 32.8141 0.299023 -3.27817 -0.063098 7.79334 -89.6252 11.2863 0.0489963 0.741264 -0.384829 0.0815879 0.738382 -22.9184 -0.176037 0.721724 -2.9057 -0.176034 0.721721 95.1318 -52.7013 -92.5566 26.5372 -11.1965 7.21958 -5.57898 -19.8608 -50.7536 -14.6932 -0.703583 -0.093257 -102.371 -52.7492 61.6705 -21.5338 2.76985 13.0301 1.81704 -2.20834 -54.6146 16.2164 1.00391 2.31985 4.43791 0.244514 -2.56937 9.1962 0.783936 1.32989 
